<svg viewBox="0 0 127 50" fill="none" xmlns="http://www.w3.org/2000/svg"><mask id="a" maskUnits="userSpaceOnUse" x="0" y="0" width="50" height="50"><path d="M0 .2h49.4v49.7H0V.2z" fill="#fff"/></mask><g mask="url(#a)"><path fill-rule="evenodd" clip-rule="evenodd" d="M47 28l-1.7-6.4 3.6 1.6-2 4.8zm1.2 3.5l-1.1-2.9 1.8-4.3-.7 7.2zm-3.2 4l-.1-.2 2-6.2 1.2 3.2-3 3.1zm-1.2 5l.5-2.9a1.2 1.2 0 0 0 1-2l2.3-2.3-3.8 7.2zm-.5 1l-5 2.8 5.4-6.8h.2l-.6 4zm-6-2.7l6-1.9.1.3-5.7 7.2-.4-5.6zm-7 6.6L37 39l.3 5.7-7 .7zM28 38l8.7.7-6.8 6.4-1.9-7.1zm-7.4 5.3l7-5.2 2 7.1-9-2zm-1.4-8.5l8.2 3-7.1 5.2-1.1-8.2zm-8 3.8l7.6-3.8 1 8.2-8.6-4.4zm-.5-9.4l7.9 5.3-7.6 3.8-.3-9zm-6.1 3.5l5.7-3.5.3 9-6-5.5zm.3-10.3l5.3 6.4-5.8 3.6.5-10zM.5 26l4-3.4-.4 9.7-3.6-6.3zm0-6.5l2-2.7-2 7.7v-5zm3.3-7.2l-1 3.5-1.6 2.1 2.6-5.6zm1-2.1l3.5-1.3L3.4 15 5 10.1zm7-5.8l-3 4-3.2 1.1 6.2-5.1zm1.2-1l3.8.3.1.3-7.4 4L13 3.3zM21 .8l-2.2 1.8c-.3-.2-.5-.3-.9-.3-.5 0-1 .4-1.1 1l-3-.3L21 .8zm.9-.2l5.6 2.2-8.4.5-.1-.4L22 .6zm9.7 1.2l-3.2.9-5.1-2 8.3 1zm4.8 3.8L29 2.9l3.5-1 3.9 3.7zm4 1.3l-3.2-1-3.2-3 6.5 4zm4.1 5l-6.5-5.4 3.6 1.2 3 4.2zm-5.4.2l-1.6-5.5 7.3 6-5.7-.5zm5.7 8.6l-5.4-8.2 5.8.5-.4 7.7zm-1.2 8.5c-.1-.3-.4-.5-.6-.6l2-6.6 1.6 6.5-3 .7zm-9.8 1.4l7.5-.6c0 .2.2.4.4.6L37 38.2 34 30.6zm-.3.2l3.2 7.6-8.7-.7 5.5-6.9zm-7.6-.2h7.3l-5.4 6.9-1.9-6.9zm-.3.1l1.8 6.9-8.1-3 6.3-3.9zm-6.1-5l5.9 4.7-6.3 4 .4-8.7zm-.4-.1l-.4 8.7-8-5.3 8.4-3.4zM12 18.9l7 6.3-8.3 3.5 1.3-9.8zm-.4 0l-1.3 9.6-5.2-6.4 6.5-3.2zm-4-4.7l-4.1 1.2 5-6.3-1 5.1zm6.3-4l-6 3.8L9 8.7l4.9 1.5zm3.4-5.7l-3 5.4-5-1.5 7.8-4.1.2.2zm15 2.6L26 7c0-.3-.1-.5-.3-.6l2.8-3.2L32.2 7zm.4 0l-3.6-3.8L36.6 6l-3.9 1zm.4.3l4-1.1 1.7 5.5L33 7.4zM37.9 20l-.6.1-5-6.3c.2-.2.3-.4.3-.7l6.3-.6-1 7.5zm1.2 1c0-.5-.4-.8-.8-1l1-7.2 5.4 8.3H39zm3.5 7.4l-.5.1-3.4-6.3c.2-.2.4-.5.4-.8h5.7l-2 7h-.2zM28.8 23l8-1.3c0 .2.2.5.5.6l-3.7 8-4.8-7.3zm-.2.2l4.7 7.2H26l2.6-7.2zm-.4 0l-2.5 7-6-4.7 8.5-2.4zm-6.6-7.5l6.6 7-8.6 2.4 2-9.4zm-.4-.1l-2 9.4-7-6.3 9-3.1zm9-2c.2.3.4.5.7.6l-2.5 8.3-6.6-7 8.5-2zm-5.7-5.2h.3c.3 0 .6 0 .8-.2l4.8 4.2c-.2.2-.2.5-.2.7v.1L21.8 15l2.7-6.7zm-.3-.1l-2.8 6.7-6.7-4.7 9-2.5.5.5zm12.5 13l-8 1.3 2.5-8.3h.2l.6-.1 5 6.3c-.2.2-.3.5-.3.8zm-4.1-8.5c-.1-.4-.4-.7-.8-.8l1-4.3 5.8 4.6-6 .5zm-.2-5.2l-1 4.3c-.3 0-.6.1-.8.3l-4.8-4.3.2-.4h6.4zM18 4.8c.4 0 .8-.2 1-.5l4.7 2.5-.1.4v.1l-8.9 2.5 3-5.1h.3zm-3.6 5.6l6.7 4.8-9 3 2.3-7.8zm-2.9 8.1l-6.4 3.2 2.6-7 3.8 3.8zm-3.5-4l6-4-2.3 7.7L8 14.4zm26 15.8l3.6-8a1.2 1.2 0 0 0 .8 0l3.4 6.4c-.3.2-.4.5-.5.9l-7.3.7zM28 3l-2.5 3a1.2 1.2 0 0 0-1.7.3L19.2 4v-.2L28 3zM4.6 22l-4 3.3L3 16.5 4.6 22zm-1.4-6.1l4.2-1.2-2.6 6.8-1.6-5.6zm39.9 20.5v.2l-5.6 1.7 4.6-7.5.5.1 1.2 4.4c-.4.2-.7.6-.7 1.1zm1.2-1.2h-.1L43 30.8c.5-.2.8-.6.8-1.1v-.1l2.8-.7-2 6.3h-.3zM49 22.8L45.2 21l.4-7.3 3.3 9zm-2-7.5l1 3.9-1.7-5 .8 1zm2.4 7.8l-2-8L42 7.4l-9.2-5.9h-.1L22 .2h-.1l-9 2.7h-.1L4.6 9.8.1 19.4l-.1 4a24.7 24.7 0 0 0 24.2 26.6c3.5 0 7-.8 10.3-2.2l.3-.2.7-.4.6-.3.5-.2.9-.6 3.8-3 2.1-1.3 5-9.3.9-9.3z" fill="#0B5FBA"/></g><path fill-rule="evenodd" clip-rule="evenodd" d="M63.8 10.2c0-2 1-3 3-3 1.3 0 2.3.5 2.7 1.8l-1 .4c-.2-.8-.8-1.2-1.7-1.2-1.3 0-1.9.6-1.9 2v2.2c0 1.4.6 2 1.8 2 1.3 0 1.8-.6 1.8-2v-.6h-2v-1h3.1v1.6c0 2-1 3-2.9 3s-2.9-1-2.9-3v-2.2zM75.6 15.3h-4.3v-8h1v7h3.3v1zM77.3 12.4c0 1.4.6 2 1.8 2 1.2 0 1.9-.6 1.9-2v-2.3c0-1.3-.6-2-1.9-2-1.2 0-1.8.7-1.8 2v2.3zm-1-2.3c0-1.8.9-2.9 2.8-2.9 2 0 3 1 3 3v2.2c0 2.4-1.6 3-3 3s-2.9-.6-2.9-3v-2.3zM84.7 11.8v2.5h1.9c.9 0 1.3-.6 1.3-1.3 0-.8-.4-1.2-1.3-1.2h-1.9zm0-3.4v2.4h1.6c1 0 1.3-.6 1.3-1.2 0-.7-.3-1.2-1.3-1.2h-1.6zm-1 6.9v-8h2.6c1.6 0 2.4.8 2.4 2.2 0 .8-.2 1.3-.8 1.7.8.3 1.1.9 1.1 1.7 0 1.5-.9 2.4-2.4 2.4h-3zM93.3 8.6H93l-1 3.1h2.2l-1-3.1zm2 6.7l-.7-2.6h-2.8l-.8 2.6h-1l2.4-8H94l2.4 8h-1zM102.1 15.3h-4.3v-8h1v7h3.3v1zM63.8 26.2V24c0-2 1-3 3-3 1.3 0 2.2.6 2.6 1.9l-1 .3c-.2-.8-.8-1.2-1.7-1.2-1.2 0-1.8.6-1.8 2v2.2c0 1.4.6 2 1.8 2 .9 0 1.5-.3 1.8-1.2l1 .4c-.4 1-1.2 1.9-2.8 1.9-1.8 0-2.9-1-2.9-3zM75.1 25.6h-3.3V28h3.3v1h-4.3v-7.9H75v1h-3.3v2.4h3.3v1zM81.7 29L78 23.3V29h-1.1v-7.9h1l3.8 6v-6h1.1v7.9h-1zM86.3 22.2H84v-1h5.6v1h-2.3v6.9h-1v-6.9zM95.3 25.6H92V28h3.3v1h-4.4v-7.9h4.4v1H92v2.4h3.3v1zM99.8 24.6c1 0 1.4-.4 1.4-1.2 0-.9-.5-1.2-1.4-1.2H98v2.4h1.8zm-2.9-3.4h2.9c1.6 0 2.5.8 2.5 2.2a2 2 0 0 1-1.6 2l1.9 3.7h-1.2l-1.8-3.5H98V29h-1v-7.9zM107.2 26.3c0 1.4.6 2 1.9 2 1.2 0 1.8-.6 1.8-2V24c0-1.4-.6-2-1.8-2-1.3 0-1.9.6-1.9 2v2.3zm-1-2.3c0-1.9 1-3 2.9-3s2.9 1.1 2.9 3v2.3c0 2.3-1.5 3-3 3-1.3 0-2.9-.7-2.9-3V24zM118.5 29l-3.8-5.8V29h-1v-7.9h1l3.7 6v-6h1.1v7.9h-1zM66.9 36.2h-.2l-1 3.2h2.2l-1-3.2zm2 6.7l-.7-2.6h-2.8l-.8 2.6h-1L66 35h1.6l2.4 8h-1zM74 42c1.4 0 2-.8 2-2.1V38c0-1.3-.6-2-2-2h-1.6v6H74zm-2.6-7H74c1.9 0 2.9 1 2.9 3V40c0 2-1 3-3 3h-2.6V35zM81.1 36.2H81l-1 3.2h2.2l-1-3.2zm2.1 6.7l-.8-2.6h-2.8l-.8 2.6h-1l2.4-7.9h1.6l2.5 8h-1zM86.7 38.5h1.7c1 0 1.5-.4 1.5-1.2 0-.9-.5-1.3-1.5-1.3h-1.7v2.5zm1.7-3.5c1.7 0 2.6.8 2.6 2.2 0 1.4-1 2.2-2.6 2.2h-1.7V43h-1V35h2.7zM94 36h-2.2v-1h5.6v1H95v7h-1v-7zM100.6 36.2h-.2l-1 3.2h2.2l-1-3.2zm2.1 6.7l-.8-2.6h-2.8l-.8 2.6h-1l2.4-7.9h1.6l2.5 8h-1zM106 36h-2.4v-1h5.6v1h-2.3v7h-1v-7z" fill="#0B5FBA"/><mask id="b" maskUnits="userSpaceOnUse" x="0" y="0" width="127" height="50"><path d="M0 50h126.6V.1H0v49.7z" fill="#fff"/></mask><g mask="url(#b)" fill-rule="evenodd" clip-rule="evenodd" fill="#0B5FBA"><path d="M110.5 43h1v-8h-1v8zM114.3 40c0 1.5.6 2.1 1.8 2.1 1.2 0 1.9-.6 1.9-2v-2.3c0-1.4-.6-2-1.9-2-1.2 0-1.8.6-1.8 2V40zm-1-2.2c0-1.9.9-3 2.8-3 2 0 3 1.1 3 3V40c0 2.3-1.6 3-3 3s-2.9-.7-2.9-3v-2.3zM125.6 43l-3.8-6v6h-1.1v-8h1l3.8 6v-6h1v8h-.9z"/></g></svg>
